<svg t="1637602765901" class="icon" viewBox="0 0 1024 1024" version="1.1" xmlns="http://www.w3.org/2000/svg"
p-id="1438" width="42" height="42">
<path fill="#eccc68" d="M511.88 511.89m-447.67 0a447.67 447.67 0 1 0 895.34 0 447.67 447.67 0 1 0-895.34 0Z"
  p-id="1439"></path>
<path
  d="M445.84 466.44c5.1 0 10.28-1.19 15.12-3.69 16.13-8.37 22.46-28.31 14.1-44.45-4.05-7.82-10.9-13.59-19.3-16.26-8.39-2.66-17.33-1.9-25.14 2.16-16.14 8.36-22.48 28.29-14.12 44.44 5.86 11.31 17.4 17.8 29.34 17.8z m-10.6-53.31c3.3-1.71 6.9-2.58 10.51-2.58 2.34 0 4.68 0.36 6.97 1.08a22.71 22.71 0 0 1 13.4 11.3c5.82 11.22 1.42 25.08-9.78 30.89-11.25 5.8-25.09 1.42-30.9-9.8-5.82-11.23-1.42-25.08 9.8-30.89z"
  fill="#231815" p-id="1440"></path>
<path
  d="M755.02 350.14c-51.05-51.05-190.83-58-299.1-42.88-49.09 6.86-166.8 29.18-199.55 88.04-30.24 54.35-45.96 201.12 12.01 259.08 48.74 48.74 160.08 69.19 254.88 69.19 11.27 0 22.3-0.29 32.97-0.85 95.38-5.05 168.23-30.39 199.85-69.52 47.66-59 54.98-247.01-1.06-303.06z m-472.28 59.83c17.88-32.13 85.83-60.03 177.36-72.82 33.25-4.65 66.33-6.86 97.56-6.86 81.17 0 149.81 14.98 176.02 41.19 26.16 26.16 34.52 95.43 29.23 157.94-31.23-36.73-91.49-99.86-136.81-99.86h-0.17c-31.44 0.11-58.84 46.1-87.86 94.8-21.12 35.47-47.4 79.57-64.43 79.57h-0.13c-17.42-0.22-34.92-19.57-51.86-38.27-19.78-21.85-40.22-44.44-66.2-44.44-37.05 0-64.69 59.69-77.85 95.16-28.67-53.05-20.16-160.93 5.14-206.41z m449.87 224.26c-25.87 32.01-92.4 53.83-177.97 58.36-110.82 5.87-220.05-18.1-262.44-57.18 14.07-42.28 40.48-94.07 63.26-94.07 17.04 0 34.45 19.23 51.28 37.82 19.83 21.91 40.33 44.56 66.52 44.9 28.57 0.63 53.4-41.23 82.1-89.39 22.54-37.83 50.58-84.91 70.64-84.98h0.11c39.09 0 103.96 70.62 133.5 107.34-5.2 33.03-14.43 61.64-27 77.2z"
  fill="#231815" p-id="1441"></path>
</svg>