<svg t="1638261859203" class="icon" viewBox="0 0 1024 1024" version="1.1" xmlns="http://www.w3.org/2000/svg" p-id="6778"
    width="42" height="42">
    <path fill="#70a1ff" d="M511.88 511.89m-447.67 0a447.67 447.67 0 1 0 895.34 0 447.67 447.67 0 1 0-895.34 0Z"
        p-id="1439" />
    <path
        d="m792.32694,549.46891a135.11632,134.94605 0 0 1 -135.11687,134.94605a18.99686,18.97293 0 0 1 0,-37.94585a97.1226,97.00021 0 0 0 16.38495,-192.57743l-11.16058,-1.89712l-3.56195,-10.67238a155.30087,155.10517 0 0 0 -293.74204,0l-3.56195,10.67238l-11.16058,1.89712a97.1226,97.00021 0 0 0 16.38495,192.57743a18.99686,18.97293 0 1 1 0,37.94585a135.11632,134.94605 0 0 1 -33.71995,-265.62316a193.29515,193.05157 0 0 1 357.85708,0a135.11632,134.94605 0 0 1 101.39693,130.6771l0,0.00001zm-277.59474,-108.62087a18.99686,18.97293 0 0 1 16.38495,9.24939l93.7983,94.15368a18.99686,18.97293 0 1 1 -26.8337,26.79988l-63.87739,-64.74573l0,169.80914a18.99686,18.97293 0 0 1 -37.99428,0l0,-171.46948l-65.53981,65.45722a18.99686,18.97293 0 0 1 -27.0708,-25.85105l97.1226,-96.99965a18.99686,18.97293 0 0 1 14.01014,-6.40343l-0.00002,0.00002z"
        p-id="7125" />
</svg>